<svg xmlns="http://www.w3.org/2000/svg" width="13.487" height="13.487" viewBox="0 0 13.487 13.487"><defs><style>.a{fill:#fff;}</style></defs><path class="a" d="M6.743,0a6.743,6.743,0,1,0,6.743,6.743A6.744,6.744,0,0,0,6.743,0Zm5.832,9.106-1.918.331a10.063,10.063,0,0,0,.353-2.469h2.021A6.252,6.252,0,0,1,12.576,9.106ZM.455,6.968H2.476a10.063,10.063,0,0,0,.353,2.469L.911,9.106A6.252,6.252,0,0,1,.455,6.968ZM.911,4.381,2.829,4.05a10.063,10.063,0,0,0-.353,2.469H.455A6.252,6.252,0,0,1,.911,4.381Zm6.057-.772a15.464,15.464,0,0,1,2.41.22l.793.137a9.649,9.649,0,0,1,.39,2.553H6.968Zm2.486-.223A15.933,15.933,0,0,0,6.968,3.16V.462c1.289.124,2.408,1.3,3.042,3.021ZM6.519,3.16a15.931,15.931,0,0,0-2.486.227l-.556.1C4.111,1.765,5.23.584,6.519.461Zm-2.41.67a15.46,15.46,0,0,1,2.41-.22v2.91H2.926a9.649,9.649,0,0,1,.39-2.553ZM2.926,6.968H6.519v2.91a15.464,15.464,0,0,1-2.41-.22l-.793-.137A9.649,9.649,0,0,1,2.926,6.968ZM4.032,10.1a15.987,15.987,0,0,0,2.486.228v2.7c-1.289-.124-2.408-1.3-3.042-3.021Zm2.936.228A15.985,15.985,0,0,0,9.454,10.1l.556-.1c-.634,1.718-1.754,2.9-3.042,3.021Zm2.41-.671a15.46,15.46,0,0,1-2.41.22V6.968h3.593a9.649,9.649,0,0,1-.39,2.553Zm1.633-3.139a10.063,10.063,0,0,0-.353-2.469l1.918.331a6.252,6.252,0,0,1,.456,2.138Zm1.338-2.633L10.51,3.568A6.2,6.2,0,0,0,8.722.77,6.324,6.324,0,0,1,12.348,3.886ZM4.765.77a6.2,6.2,0,0,0-1.788,2.8l-1.838.317A6.324,6.324,0,0,1,4.765.77ZM1.139,9.6l1.838.317a6.2,6.2,0,0,0,1.788,2.8A6.324,6.324,0,0,1,1.139,9.6Zm7.583,3.116a6.2,6.2,0,0,0,1.788-2.8L12.348,9.6A6.324,6.324,0,0,1,8.722,12.717Zm0,0"/></svg>