<?xml version="1.0" encoding="utf-8"?>
<!-- Generator: Adobe Illustrator 17.1.0, SVG Export Plug-In . SVG Version: 6.00 Build 0)  -->
<!DOCTYPE svg PUBLIC "-//W3C//DTD SVG 1.1//EN" "http://www.w3.org/Graphics/SVG/1.1/DTD/svg11.dtd">
<svg version="1.1" id="Layer_1" xmlns="http://www.w3.org/2000/svg" xmlns:xlink="http://www.w3.org/1999/xlink" x="0px" y="0px"
	 viewBox="0 0 315.8 128.8" enable-background="new 0 0 315.8 128.8" xml:space="preserve">
<rect x="0.6" y="0.6" fill="#DA2128" width="314.7" height="62.6"/>
<path fill="#DA2128" d="M1.1,1.1h313.6v61.5H1.1V1.1z M0,63.7h315.8V0H0V63.7z"/>
<rect x="0.6" y="63.2" fill="#FFFFFF" width="314.7" height="41.5"/>
<path fill="#DA2128" d="M1.1,63.8h313.6v40.4H1.1V63.8z M0,105.3h315.8V62.6H0V105.3z"/>
<polygon points="52.4,73.8 57.4,73.8 61.1,85.7 64.8,73.8 70.8,73.8 74.5,85.8 78.1,73.8 83.2,73.8 76.8,94.6 72.7,94.6 67.8,78.7 
	62.9,94.6 58.8,94.6 "/>
<polygon points="85.4,73.8 103.4,73.8 103.4,77.4 90.7,77.4 90.7,82 98.5,82 98.5,85.1 90.7,85.1 90.7,91 103.4,91 103.4,94.6 
	85.4,94.6 "/>
<g>
	<defs>
		<rect id="SVGID_1_" width="315.8" height="128.8"/>
	</defs>
	<clipPath id="SVGID_2_">
		<use xlink:href="#SVGID_1_"  overflow="visible"/>
	</clipPath>
	<path clip-path="url(#SVGID_2_)" d="M106.6,73.8h7.3c3.9,0,6.6,0.2,8.1,0.7c1.5,0.5,2.7,1.2,3.5,2.2c0.8,1,1.2,2.2,1.2,3.6
		c0,1.2-0.4,2.3-1.1,3.1c-0.8,0.8-2,1.5-3.9,2.1l4.8,9.1h-5.2l-4.5-8.3h-4.8v8.3h-5.3V73.8z M111.9,77.4V83h4.2c1.5,0,2.9-0.3,4-1
		c0.7-0.5,1.1-1.1,1.1-1.9c0-0.8-0.4-1.4-1.2-1.9c-0.8-0.5-2.1-0.8-3.8-0.8H111.9z"/>
	<polygon clip-path="url(#SVGID_2_)" points="129.1,73.8 134.3,73.8 134.3,83 144,73.8 149.8,73.8 141.4,81.8 150.5,94.6 
		145.3,94.6 138.4,84.8 134.3,88.6 134.3,94.6 129.1,94.6 	"/>
	<polygon clip-path="url(#SVGID_2_)" points="152.6,73.8 171.6,73.8 171.6,77 159.1,91 171.9,91 171.9,94.6 151.9,94.6 151.9,91.8 
		164.9,77.4 152.6,77.4 	"/>
	<polygon clip-path="url(#SVGID_2_)" points="174.7,73.8 192.8,73.8 192.8,77.4 180,77.4 180,82 187.8,82 187.8,85.1 180,85.1 
		180,91 192.8,91 192.8,94.6 174.7,94.6 	"/>
	<path clip-path="url(#SVGID_2_)" d="M194.9,73.8h5.3v12.7c0,1.6,0.5,2.8,1.4,3.6c0.9,0.8,2.2,1.2,3.9,1.2c1,0,2-0.2,2.8-0.5
		c0.8-0.3,1.5-0.8,1.9-1.5c0.5-0.7,0.7-1.6,0.7-2.7V73.8h5.3v13.3c0,2.5-0.9,4.5-2.7,5.9c-1.8,1.4-4.4,2-7.9,2c-2,0-3.8-0.2-5.6-0.7
		c-0.9-0.3-1.7-0.6-2.3-1c-0.8-0.6-1.5-1.4-2.1-2.3c-0.6-0.9-0.8-2.2-0.8-3.7V73.8z"/>
	<path clip-path="url(#SVGID_2_)" d="M237.6,92c-1.1,0.9-2.1,1.6-3.2,2c-1.5,0.6-3.2,0.9-4.9,0.9c-1.8,0-3.5-0.3-5.2-1
		c-1.7-0.7-3-1.8-4-3.3c-1-1.5-1.6-3.5-1.6-6.1c0-2.7,0.6-4.8,1.7-6.5c1.1-1.6,2.6-2.8,4.5-3.6c1.9-0.8,4-1.2,6.1-1.2
		c2,0,3.7,0.3,5.3,0.9c1.5,0.6,2.7,1.4,3.7,2.4c0.6,0.7,1.1,1.6,1.5,2.7l-4.2,1.1c-0.5-1.1-1.1-2-1.8-2.5c-1.1-0.8-2.5-1.2-4.2-1.2
		c-2,0-3.7,0.5-5,1.6c-1.3,1-2,2.9-2,5.7c0,1.9,0.3,3.4,0.8,4.4c0.5,1,1.3,1.8,2.4,2.3c1.1,0.5,2.2,0.8,3.4,0.8
		c0.9,0,1.8-0.1,2.7-0.4c0.9-0.3,1.6-0.6,2.1-1.1c0.5-0.4,1-0.8,1.2-1.3c0.3-0.4,0.5-1,0.7-1.7h-7V84h11.3v10.6h-4.2V92z"/>
	<polygon clip-path="url(#SVGID_2_)" points="245.4,73.8 263.4,73.8 263.4,77.4 250.7,77.4 250.7,82 258.5,82 258.5,85.1 
		250.7,85.1 250.7,91 263.4,91 263.4,94.6 245.4,94.6 	"/>
	<path clip-path="url(#SVGID_2_)" fill="#FFFFFF" d="M267.5,18.5c-2.2,0-4-1.8-4-4c0-2.2,1.8-4,4-4c2.2,0,4,1.8,4,4
		C271.5,16.7,269.7,18.5,267.5,18.5 M267.5,11.2c-1.8,0-3.3,1.5-3.3,3.3c0,1.8,1.5,3.3,3.3,3.3c1.8,0,3.3-1.5,3.3-3.3
		C270.8,12.7,269.3,11.2,267.5,11.2 M268.6,16.7c-0.1-0.3-0.1-0.5-0.1-0.7c0-0.8-0.2-1.1-0.8-1.1h-1.1v1.8h-0.8v-4.5h2.1
		c1,0,1.5,0.5,1.5,1.2c0,0.7-0.4,1-0.7,1.1c0.3,0.1,0.6,0.3,0.6,0.9c0,0.5,0.1,1,0.3,1.2H268.6z M267.8,12.9h-1.2v1.3h1.2
		c0.5,0,0.7-0.2,0.7-0.7C268.5,13,268.2,12.9,267.8,12.9"/>
	<path clip-path="url(#SVGID_2_)" fill="#FFFFFF" d="M70.8,10.4H83l18.9,42.2H90.7l-4.4-9.9H67.6l-4.4,9.9H52L70.8,10.4z M76.9,21.8
		l-6.7,14.7h13.2L76.9,21.8z"/>
	<path clip-path="url(#SVGID_2_)" fill="#FFFFFF" d="M107.3,10.4h15.7c8.4,0,14.3,0.5,17.5,1.4c3.2,0.9,5.8,2.4,7.6,4.6
		c1.8,2.1,2.7,4.5,2.7,7.3c0,2.5-0.8,4.6-2.4,6.3c-1.6,1.6-4.4,3.1-8.4,4.2l10.5,18.5h-11.3l-9.8-17h-10.5v17h-11.5V10.4z
		 M118.8,17.8v11.4h9.2c3.3,0,6.2-0.7,8.6-2.1c1.5-0.9,2.3-2.2,2.3-3.8c0-1.6-0.9-2.9-2.6-3.9c-1.7-1-4.5-1.6-8.3-1.6H118.8z"/>
	<polygon clip-path="url(#SVGID_2_)" fill="#FFFFFF" points="158.8,10.4 170.9,10.4 194.8,38.7 194.8,10.4 206.1,10.4 206.1,52.6 
		194.8,52.6 170.2,23.2 170.2,52.6 158.8,52.6 	"/>
	<path clip-path="url(#SVGID_2_)" fill="#FFFFFF" d="M237.1,9.6c5.5,0,9.9,0.7,13.2,2c4.4,1.7,7.7,4.2,10,7.4
		c2.3,3.2,3.5,7.5,3.5,12.7c0,7.1-2.3,12.5-7,16.2c-4.6,3.7-10.8,5.5-18.4,5.5c-7.7,0-13.9-1.9-18.7-5.6c-4.8-3.7-7.1-9.2-7.1-16.3
		c0-4.3,1-8.2,2.9-11.6c1-1.9,2.6-3.7,4.8-5.3c2.1-1.6,4.6-2.9,7.5-3.8C230.7,10,233.8,9.6,237.1,9.6 M238.2,16.8
		c-3.9,0-7.2,1.1-9.7,3.4s-3.8,6.1-3.8,11.3c0,5.2,1.3,8.9,3.9,11.1c2.6,2.3,5.9,3.4,10,3.4c3.9,0,7.1-1.1,9.6-3.4
		c2.6-2.3,3.8-5.9,3.8-11.1c0-5.7-1.6-9.8-4.7-12.1C244.9,17.7,241.9,16.8,238.2,16.8"/>
</g>
</svg>
